<?xml version="1.0" standalone="no"?>
<!DOCTYPE svg PUBLIC "-//W3C//DTD SVG 20010904//EN"
 "http://www.w3.org/TR/2001/REC-SVG-20010904/DTD/svg10.dtd">
<svg version="1.0" xmlns="http://www.w3.org/2000/svg"
 width="64.000000pt" height="64.000000pt" viewBox="0 0 64.000000 64.000000"
 preserveAspectRatio="xMidYMid meet">
<metadata>
Created by potrace 1.11, written by Peter Selinger 2001-2013
</metadata>
<g transform="translate(0.000000,64.000000) scale(0.100000,-0.100000)"
fill="#674172" stroke="none">
<path d="M310 600 c-26 -23 -44 -30 -76 -30 -46 0 -54 -10 -54 -64 0 -20 -11
-44 -30 -68 l-30 -37 29 -33 c21 -25 31 -47 33 -79 l3 -44 47 -5 c33 -4 56
-14 76 -33 15 -15 31 -27 35 -27 4 0 26 14 49 30 28 21 53 30 78 30 37 0 37 1
43 46 3 30 15 58 35 83 l30 38 -29 29 c-22 23 -31 43 -36 82 l-6 52 -47 0
c-38 0 -51 5 -75 30 -16 17 -31 30 -34 30 -3 -1 -22 -14 -41 -30z m100 -85
c82 -43 82 -178 -1 -221 -94 -48 -200 23 -186 127 12 88 106 136 187 94z"/>
<path d="M136 138 c-14 -39 -24 -73 -22 -76 3 -2 25 2 48 11 l44 14 22 -38
c13 -22 26 -39 30 -39 4 0 19 33 33 73 l26 72 -26 21 c-15 12 -48 23 -77 27
l-52 6 -26 -71z"/>
<path d="M462 201 c-24 -4 -52 -16 -63 -27 -20 -20 -20 -20 7 -95 14 -41 28
-75 29 -77 2 -2 13 15 26 37 25 46 29 47 89 26 31 -11 40 -11 36 -2 -2 6 -15
42 -27 80 -16 46 -28 67 -38 66 -9 -1 -35 -5 -59 -8z"/>
</g>
</svg>
